<?xml version="1.0" encoding="UTF-8" standalone="no"?>
<!-- Created with Inkscape (http://www.inkscape.org/) -->

<svg
   width="210mm"
   height="297mm"
   viewBox="0 0 210 297"
   version="1.1"
   id="svg5"
   inkscape:version="1.2.2 (b0a8486541, 2022-12-01)"
   sodipodi:docname="drawing-1.svg"
   xml:space="preserve"
   xmlns:inkscape="http://www.inkscape.org/namespaces/inkscape"
   xmlns:sodipodi="http://sodipodi.sourceforge.net/DTD/sodipodi-0.dtd"
   xmlns="http://www.w3.org/2000/svg"
   xmlns:svg="http://www.w3.org/2000/svg"><sodipodi:namedview
     id="namedview7"
     pagecolor="#ffffff"
     bordercolor="#666666"
     borderopacity="1.0"
     inkscape:showpageshadow="2"
     inkscape:pageopacity="0.0"
     inkscape:pagecheckerboard="0"
     inkscape:deskcolor="#d1d1d1"
     inkscape:document-units="mm"
     showgrid="false"
     inkscape:zoom="1.6819304"
     inkscape:cx="193.23035"
     inkscape:cy="138.23402"
     inkscape:window-width="3398"
     inkscape:window-height="1371"
     inkscape:window-x="0"
     inkscape:window-y="0"
     inkscape:window-maximized="1"
     inkscape:current-layer="layer1" /><defs
     id="defs2"><marker
       style="overflow:visible"
       id="RoundedArrow"
       refX="0"
       refY="0"
       orient="auto-start-reverse"
       inkscape:stockid="RoundedArrow"
       markerWidth="3.135"
       markerHeight="3.0306199"
       viewBox="0 0 6.1347524 5.9304951"
       inkscape:isstock="true"
       inkscape:collect="always"
       preserveAspectRatio="xMidYMid"><path
         transform="scale(0.7)"
         d="m -0.21114562,-4.1055728 6.42229122,3.21114561 a 1,1 90 0 1 0,1.78885438 L -0.21114562,4.1055728 A 1.236068,1.236068 31.717474 0 1 -2,3 v -6 a 1.236068,1.236068 148.28253 0 1 1.78885438,-1.1055728 z"
         style="fill:context-stroke;fill-rule:evenodd;stroke:none"
         id="path1367" /></marker></defs><g
     inkscape:label="Layer 1"
     inkscape:groupmode="layer"
     id="layer1"><rect
       style="display:inline;fill:none;fill-rule:evenodd;stroke:#000000;stroke-width:1;stroke-dasharray:none;stroke-opacity:1"
       id="rect131"
       width="93"
       height="93"
       x="0"
       y="0"
       rx="6"
       ry="6"
       inkscape:label="frame"
       sodipodi:insensitive="true" /><g
       style="overflow:visible"
       id="camel"
       transform="matrix(0.09341752,0,0,0.09341752,-7.4458777,41.608593)"><path
         d="m 155.781,178.771 c 1.763,2.334 6.524,3.221 10.975,4.658 4.45,1.438 8.588,3.426 13.039,6.437 4.45,3.012 9.212,7.046 12.215,13.305 3.003,6.258 4.248,14.739 4.977,21.917 0.729,7.179 0.942,13.055 2.773,18.973 1.831,5.917 5.278,11.876 9.628,18.045 4.35,6.168 9.604,12.547 15.739,15.362 6.135,2.814 13.152,2.066 19.255,2.32 6.104,0.254 11.294,1.509 14.282,3.94 2.988,2.431 3.774,6.038 5.786,8.479 2.013,2.439 5.252,3.712 8.005,5.132 2.753,1.42 5.02,2.988 7.176,4.697 0.287,6.78 0.635,13.559 1.167,20.773 0.532,7.215 1.248,14.867 1.288,20.435 0.041,5.566 -0.594,9.047 -1.621,12.869 -1.027,3.821 -2.446,7.984 -2.465,11.62 -0.019,3.637 1.362,6.746 1.771,9.697 0.409,2.951 -0.153,5.744 -0.516,9.073 -0.362,3.33 -0.524,7.195 -1.288,10.66 -0.763,3.465 -2.126,6.528 -3.315,9.388 -1.188,2.859 -2.201,5.514 -4.076,6.533 -1.875,1.019 -4.611,0.402 -7.235,0.922 -2.623,0.52 -5.133,2.176 -6.313,4.082 -1.18,1.906 -1.028,4.064 0.76,5.728 1.787,1.663 5.21,2.833 8.296,3.268 3.087,0.436 5.838,0.136 8.359,0.094 2.521,-0.042 4.813,0.174 6.539,-0.297 1.725,-0.471 2.882,-1.628 3.733,-3.039 1.711,-2.883 2.225,-6.672 1.762,-10.171 3.586,0.353 7.171,0.724 10.423,1.156 3.252,0.432 6.169,0.928 8.53,0.889 2.36,-0.038 4.162,-0.608 5.8,-1.458 1.638,-0.849 3.112,-1.976 3.289,-4.908 0.177,-2.934 -0.943,-7.672 -1.174,-14.043 -0.23,-6.372 0.428,-14.376 1.167,-20.563 0.739,-6.186 1.559,-10.554 1.347,-13.927 -0.212,-3.373 -1.456,-5.751 -2.118,-8.619 -0.662,-2.868 -0.745,-6.228 -1.27,-11.718 -0.525,-5.491 -1.494,-13.113 -2.581,-20.719 1.368,-1.445 3.024,-2.587 6.009,-3.921 2.985,-1.334 7.3,-2.86 13.041,-3.145 5.74,-0.283 12.905,0.675 19.284,1.271 6.38,0.596 11.973,0.829 18.867,-1.641 6.895,-2.469 15.092,-7.641 22.937,-9.923 7.845,-2.281 15.337,-1.672 18.741,0.273 3.403,1.946 2.719,5.229 3.801,8.52 1.083,3.292 3.934,6.591 6.572,10.844 2.638,4.253 5.066,9.459 6.856,16.989 1.79,7.531 2.943,17.386 3.654,24.33 0.711,6.943 0.98,10.976 1.035,15.014 -2.817,3.517 -5.695,6.984 -8.837,10.758 -3.143,3.773 -6.549,7.852 -8.798,9.89 -2.249,2.038 -3.342,2.036 -4.999,2.228 -1.658,0.191 -3.882,0.575 -5.469,1.334 -1.587,0.76 -2.537,1.895 -3.108,3.853 -0.57,1.957 -0.762,4.738 0.343,6.261 1.105,1.523 3.505,1.787 5.865,1.941 2.36,0.154 4.681,0.198 6.98,0.012 0.913,-0.032 1.862,0.68 1.661,1.87 -0.201,1.191 -1.554,2.862 -1.544,4.675 0.011,1.812 1.382,3.765 3.935,4.926 2.553,1.161 6.286,1.53 9.827,1.824 3.541,0.293 6.89,0.511 8.082,-1.56 1.193,-2.069 0.23,-6.426 0.459,-10.506 0.229,-4.079 1.648,-7.881 3.328,-12.543 1.679,-4.663 3.618,-10.187 5.329,-14.723 1.711,-4.536 3.195,-8.084 4.659,-10.89 1.464,-2.805 2.908,-4.866 4.546,-6.705 1.637,-1.84 3.468,-3.455 3.697,-6.641 0.23,-3.185 -1.141,-7.938 -2.03,-12.61 -0.89,-4.672 -1.3,-9.264 -2.097,-13.617 -0.796,-4.354 -1.979,-8.47 -2.036,-12.081 -0.056,-3.61 1.016,-6.717 1.207,-11.956 0.191,-5.239 -0.496,-12.612 -0.1,-18.184 0.396,-5.57 1.877,-9.339 2.636,-13.558 0.758,-4.218 0.794,-8.887 0.284,-13.488 1.264,-0.751 2.93,-0.625 4.631,1.193 1.7,1.818 3.437,5.329 4.551,8.942 1.114,3.613 1.608,7.329 2.066,10.237 0.458,2.907 0.88,5.007 1.768,6.846 0.888,1.839 2.241,3.419 3.69,4.421 1.449,1.002 2.994,1.427 5.053,1.757 2.059,0.331 4.633,0.567 7.201,0.586 -0.146,-2.143 -0.825,-4.267 -1.933,-5.879 -1.106,-1.613 -2.642,-2.715 -4.626,-4.309 -1.985,-1.594 -4.42,-3.68 -6.857,-5.761 -0.839,-3.41 -1.75,-6.802 -2.589,-9.986 -0.839,-3.186 -1.604,-6.164 -2.928,-8.665 -1.322,-2.502 -3.202,-4.526 -7.009,-6.944 -3.808,-2.419 -9.544,-5.232 -13.745,-8.849 -4.201,-3.618 -6.867,-8.039 -10.843,-11.943 -3.976,-3.905 -9.262,-7.292 -13.275,-9.084 -4.013,-1.792 -6.755,-1.988 -9.537,-3.723 -2.782,-1.735 -5.606,-5.007 -8.365,-7.406 -2.759,-2.399 -5.454,-3.923 -8.451,-7.507 -2.997,-3.584 -6.297,-9.227 -11.565,-13.185 -5.268,-3.958 -12.507,-6.23 -18.985,-7.671 -6.478,-1.441 -12.198,-2.051 -15.43,-1.351 -3.231,0.699 -3.975,2.708 -5.494,3.581 -1.521,0.874 -3.816,0.613 -5.953,1.309 -2.137,0.696 -4.114,2.35 -5.793,4.56 -1.679,2.209 -3.061,4.975 -3.891,7.883 -2.275,-0.275 -4.579,-0.275 -7.372,0.026 -2.793,0.301 -6.078,0.904 -10.324,2.606 -4.246,1.703 -9.455,4.505 -14.682,6.577 -5.227,2.071 -10.472,3.413 -15.829,6.803 -5.356,3.391 -10.825,8.831 -16.079,11.444 -5.254,2.613 -10.293,2.401 -14.827,0.625 -4.533,-1.775 -8.561,-5.114 -12.123,-12.946 -3.563,-7.832 -6.66,-20.157 -8.008,-29.021 -1.348,-8.864 -0.946,-14.267 0.208,-18.016 1.155,-3.75 3.063,-5.846 5.513,-6.941 -1.804,-1.228 -3.729,-2.277 -6.033,-3.154 -2.304,-0.876 -4.989,-1.581 -7.246,-2.729 -2.257,-1.148 -4.085,-2.741 -6.928,-3.746 -2.843,-1.005 -6.701,-1.42 -13.85,-1.193 -7.148,0.227 -17.586,1.098 -24.314,1.421 -6.728,0.323 -9.746,0.099 -12.096,1.539 -2.35,1.44 -4.034,4.542 -5.494,7.984 -1.46,3.442 -2.695,7.225 -0.933,9.558 m 143.2,191.062 c 0.8,8.466 2.331,17.461 1.738,22.395 -0.593,4.934 -3.31,5.806 -5.887,7.111 -2.577,1.307 -5.015,3.047 -7.376,4.884 2.403,-9.971 4.322,-20.081 5.093,-26.986 0.771,-6.904 0.393,-10.604 1.117,-15.36 0.724,-4.757 2.55,-10.57 3.499,-9.509 0.947,1.062 1.016,8.999 1.816,17.465 m 123.929,32.284 c 3.868,-5.602 8.4,-11.524 13.23,-17.185 -1.621,3.974 -3.187,7.972 -4.869,13.086 -1.682,5.114 -3.481,11.346 -5.313,13.937 -1.831,2.59 -3.695,1.539 -5.921,1.986 -2.227,0.447 -4.815,2.393 -4.507,0.726 0.308,-1.668 3.512,-6.948 7.38,-12.55"
         id="path1105"
         style="display:inline;overflow:visible" /></g><g
       id="eagle"
       transform="matrix(0.1263386,0,0,0.1263386,54.881443,54.845957)"><path
         id="path1179"
         style="display:inline"
         d="m 118.92158,-0.00153398 c -3.51999,0 -4.47052,1.10250498 -4.31052,3.09250298 -3.57999,-1.3099987 -7.11211,-1.6490713 -9.92211,-1.6490713 -7.52999,0 -10.19893,3.1567762 -10.19893,5.8567735 0,2.2899977 1.801789,6.4711088 3.851787,9.6611058 2.939993,-1.479999 6.449493,-2.479539 8.059493,-2.479539 3.98999,0 7.54965,3.808635 9.43964,8.30863 -2.69999,0.33 -3.22191,0.442916 -5.93191,0.442916 -7.32999,0 -12.307574,-2.63231 -13.627573,-2.41231 0,1.029999 2.079191,3.75172 6.169183,5.251718 5.39,1.969998 13.28019,2.977187 14.62019,3.207187 0,0.23 -1.2722,2.462455 -3.6422,2.922455 -1.29999,-0.35 -13.877181,-4.30015 -14.70718,-3.820151 0,2.829997 7.31672,9.058591 13.87672,11.448588 -5.3144,6.800874 -12.14515,13.758475 -15.620702,25.171076 h -2.62586 c -16.259983,0 -32.340779,-10.500752 -32.340779,-23.980739 0,-7.159993 3.20739,-12.188283 7.197386,-17.748278 2.339997,0.38 4.471507,0.597146 6.141505,0.597146 7.369993,0 11.35841,-3.940353 11.63841,-7.810349 0,-3.489997 -2.819027,-6.1296419 -7.229023,-6.1296419 -6.849993,0 -19.270647,6.3906459 -31.830634,6.3906459 1.249998,0.939999 3.301638,1.921045 5.781636,2.871045 -7.359993,6.589993 -12.281678,15.469173 -14.141676,24.989163 L 20.341132,74.930366 C 17.121135,80.100361 10.278621,90.198555 -0.00136862,98.088547 12.428619,98.088547 20.67863,98.38832 31.18862,81.728336 l 9.850927,-15.778883 c 0.729999,2.049998 1.639134,4.049141 2.689133,5.999139 L 24.141509,103.30863 c -3.269996,5.21999 -10.010419,15.23214 -20.3504092,23.16213 12.4399872,0 20.6899992,0.29769 31.1899882,-16.3523 L 51.859352,83.100585 c 1.249999,1.349999 2.590201,2.649017 3.990199,3.919016 L 32.050724,125.13806 c -2.959997,4.69 -8.702372,13.28006 -17.392363,20.73005 l -2.958046,2.42022 c 6.649993,0 12.108867,0.0616 17.348862,-2.40835 4.559996,-2.14 8.961131,-6.21187 13.841126,-13.95186 l 23.20959,-37.157489 c 1.529999,0.959999 3.09203,1.89009 4.702029,2.780089 l -28.322898,45.33957 -1.878439,2.98969 c -3.689996,5.44999 -9.792206,13.50873 -18.452198,20.14872 12.429988,0 20.671863,0.29164 31.201852,-16.34835 l 2.360901,-3.80037 26.78851,-42.89958 c 1.729998,0.66 3.47963,1.27866 5.259628,1.85866 l -25.617947,41.04092 -7.331842,11.74123 c -3.219996,5.12999 -10.098555,15.26841 -20.338545,23.1384 12.429987,0 20.669999,0.27978 31.189988,-16.36021 L 77.228159,145.87998 100.7818,108.14116 c 2.03,3.24 2.68913,6.06787 2.68913,8.89787 0,10.42999 -4.02289,20.16096 -10.202884,28.84095 -4.279996,6.01999 -9.596427,11.54862 -15.296421,16.49862 0.879999,0.39 2.427607,0.54178 3.867606,0.54178 2.869997,0 4.730777,-0.17151 6.030776,-0.39151 -3.219997,7.32 -10.149444,16.79103 -13.639441,21.69103 -4.559995,-0.82 -11.189747,-1.45925 -15.529743,-1.45925 -4.529995,0 -5.042124,2.66026 -5.042124,5.03026 0,4.12999 1.922113,7.42773 4.17211,9.25773 0.83,-2.15 2.53868,-4.9393 10.918671,-4.9393 -1.609998,2.75999 -9.289372,8.9814 -9.289372,13.9914 0,3.29999 3.619364,8.26117 8.419359,8.26117 -0.28,-1.07 -0.241231,-2.06195 -0.241231,-2.79195 0,-4.03 3.570242,-8.77133 6.600239,-12.08133 -0.09,0.98 -0.03955,0.88081 -0.03955,2.02081 0,9.57999 0.870342,13.97954 6.940336,13.97954 2.979997,0 5.032091,-1.63967 5.74209,-2.11967 -3.939996,-3.65 -4.140474,-6.48779 -4.140474,-11.86778 l 0.02768,-4.65062 c 0.01,-1.22 -0.01773,-2.84184 -0.19773,-4.02183 2.169998,-0.3 3.037848,-0.30055 4.717847,-0.30055 0,0 8.633033,-0.67776 10.713031,3.81224 2.339995,-2.15 5.738135,-5.18196 5.738135,-8.54195 0,-2.2 -1.049,-4.70994 -5.488995,-4.70994 -1.679998,0 -6.98091,1.03215 -11.420906,1.03215 1.199999,-2.66 6.498724,-10.40989 11.088719,-16.03989 0.7,2.19 1.780023,4.55765 4.180012,6.47765 0.33,-3.61 2.46091,-15.04848 8.1109,-21.73848 0.66,4.51 1.55021,9.15072 1.55021,18.93071 0,23.78997 -5.71902,41.36057 -17.859003,44.73056 1.579999,2.76 4.927726,5.20822 8.387723,5.20822 4.43999,0 6.85287,-5.02998 9.33287,-9.75997 1.03727,2.8444 3.56811,8.9336 6.37878,11.16781 v 0.0514 c 0.10251,0.0927 0.24767,0.15384 0.36778,0.23728 0.13983,0.0927 0.27838,0.19779 0.41919,0.26891 0.3927,0.19823 0.80907,0.34405 1.21406,0.34405 0.40515,0 0.82124,-0.14568 1.21407,-0.34405 0.13672,-0.0692 0.27151,-0.17145 0.40732,-0.261 0.12391,-0.0855 0.2703,-0.14994 0.37569,-0.24519 v -0.0514 c 2.81067,-2.23421 5.34546,-8.32341 6.38273,-11.16781 2.48,4.72999 4.88893,9.75997 9.32892,9.75997 3.46,0 6.81168,-2.44822 8.39168,-5.20822 -12.13999,-3.36999 -17.86296,-20.94059 -17.86296,-44.73056 0,-9.77999 0.89021,-14.42071 1.55021,-18.93071 5.64999,6.69 7.7809,18.12848 8.11089,21.73848 2.4,-1.92 3.48003,-4.28765 4.18002,-6.47765 4.59,5.63 9.88872,13.37989 11.08872,16.03989 -4.43999,0 -9.73695,-1.03215 -11.41695,-1.03215 -4.43999,0 -5.49295,2.50994 -5.49295,4.70994 0,3.35999 3.40209,6.39195 5.74209,8.54195 2.08,-4.49 10.70908,-3.81224 10.70908,-3.81224 1.68,0 2.5518,5.5e-4 4.7218,0.30055 -0.18,1.17999 -0.21168,2.80183 -0.20168,4.02183 l 0.0316,4.65062 c 0,5.37999 -0.20048,8.21778 -4.14047,11.86778 0.71,0.48 2.75814,2.11967 5.73813,2.11967 6.07,0 6.94034,-4.39955 6.94034,-13.97954 0,-1.14 0.0505,-1.04081 -0.0395,-2.02081 3.03,3.31 6.60024,8.05133 6.60024,12.08133 0,0.73 0.0388,1.72195 -0.24123,2.79195 4.8,0 8.41936,-4.96118 8.41936,-8.26117 0,-5.01 -7.67937,-11.23141 -9.28937,-13.9914 8.37999,0 10.09262,2.7893 10.92262,4.9393 2.25,-1.83 4.16816,-5.12774 4.16816,-9.25773 0,-2.37 -0.50817,-5.03026 -5.03817,-5.03026 -4.34,0 -10.96975,0.63925 -15.52974,1.45925 -3.49,-4.9 -10.4234,-14.37103 -13.6434,-21.69103 1.3,0.22 3.16078,0.39151 6.03078,0.39151 1.44,0 2.99156,-0.15178 3.87156,-0.54178 -5.7,-4.95 -11.02038,-10.47863 -15.30038,-16.49862 -6.17999,-8.67999 -10.19893,-18.41096 -10.19893,-28.84095 0,-2.83 0.65914,-5.65787 2.68913,-8.89787 l 23.54969,37.73882 11.57118,18.51942 c 10.51999,16.63999 18.76,16.36021 31.18999,16.36021 -10.23999,-7.86999 -17.1225,-18.00841 -20.3425,-23.1384 l -7.32789,-11.74123 -25.6219,-41.04092 c 1.78,-0.58 3.52963,-1.19866 5.25963,-1.85866 l 26.79246,42.89958 2.35695,3.80037 c 10.52999,16.63999 18.77186,16.34835 31.20185,16.34835 -8.65999,-6.63999 -14.75825,-14.69873 -18.44824,-20.14872 l -1.88239,-2.98969 -28.31895,-45.33957 c 1.61,-0.889999 3.16808,-1.82009 4.69808,-2.780089 l 23.20959,37.157489 c 4.87999,7.73999 9.28113,11.81186 13.84112,13.95186 5.24,2.46999 10.69887,2.40835 17.34886,2.40835 l -2.95804,-2.42022 c -8.68999,-7.44999 -14.42841,-16.04005 -17.38841,-20.73005 L 184.14888,87.019601 c 1.4,-1.269999 2.7402,-2.569017 3.9902,-3.919016 l 16.88222,27.017875 c 10.49998,16.64999 18.75,16.3523 31.18998,16.3523 -10.33999,-7.92999 -17.08041,-17.94214 -20.35041,-23.16213 L 196.26975,71.948592 c 1.05,-1.949998 1.95913,-3.949141 2.68913,-5.999139 l 9.85093,15.778883 c 10.50999,16.659984 18.76,16.360211 31.18999,16.360211 C 229.71981,90.198555 222.88125,80.100361 219.66125,74.930366 L 200.43,44.179339 c -1.86,-9.51999 -6.78169,-18.39917 -14.14168,-24.989163 2.48,-0.95 4.53164,-1.931046 5.78164,-2.871045 -12.55999,0 -24.98065,-6.3906459 -31.83064,-6.3906459 -4.40999,0 -7.22902,2.6396449 -7.22902,6.1296419 0.28,3.869996 4.26842,7.810349 11.63841,7.810349 1.67,0 3.80151,-0.217146 6.1415,-0.597146 3.99,5.559995 7.20134,10.588285 7.20134,17.748278 0,13.479987 -16.08079,23.980739 -32.34077,23.980739 h -2.85523 c -2.03855,-4.274328 -6.21664,-9.523651 -6.21664,-15.430878 0,-10.699989 6.97197,-19.439208 6.97197,-30.039197 0,-6.599994 -3.21103,-10.6800137 -4.44103,-12.3700121 1.99,-1.8499981 4.17831,-4.1306815 4.67831,-5.6906799 -1.16,0.4899995 -2.5299,0.5813272 -4.53989,0.5813272 -7.78,0 -14.13669,-2.05244118 -20.32669,-2.05244118 z" /></g><path
       style="fill:none;stroke:#000000;stroke-width:1.806;stroke-linecap:butt;stroke-linejoin:miter;stroke-miterlimit:3.8;stroke-dasharray:none;stroke-opacity:1;marker-end:url(#RoundedArrow)"
       d="m 39.84972,68.995738 h 9.911"
       id="path1882" /></g></svg>
